<svg xmlns="http://www.w3.org/2000/svg" width="196" height="197" viewBox="0 0 196 197" fill="none">
  <path d="M72.2994 4.40378C73.6901 3.97079 75.2185 3.66901 76.8781 3.49188C78.5311 3.32131 80.4007 2.89488 82.2374 2.57998C89.768 1.30725 98.453 0.70369 106.298 0.434712C108.496 0.355987 110.746 0.421592 112.839 0.428153C114.931 0.434713 116.932 0.539679 118.854 0.736492C120.736 0.756173 121.681 0.775855 123.564 0.808657C124.607 0.828339 126.699 0.998911 129.841 1.34005C132.977 1.68776 136.552 2.14699 140.56 2.74399C144.568 3.34099 148.707 4.05608 152.984 4.89582C157.254 5.73556 161.223 6.81147 164.883 8.09732C165.054 8.28757 165.316 8.38598 165.671 8.41222C166.018 8.60903 166.366 8.72056 166.714 8.7468C167.061 8.77305 167.501 8.89113 168.019 9.10107C170.112 9.77023 172.768 10.9183 175.996 12.565C179.216 14.2051 182.319 16.252 185.278 18.6793C188.243 21.1133 190.768 24.0458 192.861 27.4572C194.953 30.8752 195.832 34.7655 195.478 39.0758C195.307 41.1489 194.888 43.0776 194.173 44.7046C193.517 46.1939 192.513 47.6043 191.299 48.8902C190.079 50.176 188.334 51.1536 186.071 51.8293C185.547 51.7834 185.284 51.7637 184.766 51.7178C184.412 51.6849 184.156 51.5734 183.979 51.3897C183.802 51.206 183.887 50.8583 184.241 50.3663C184.766 49.5397 184.72 49.1854 184.11 49.3101C183.5 49.4347 183.283 49.2379 183.454 48.7327C183.625 48.5753 183.933 47.9849 184.372 46.9811C184.805 45.9708 185.068 44.8162 185.16 43.5172C185.245 42.2182 184.943 40.8405 184.241 39.3841C183.546 37.9342 182.149 36.5894 180.056 35.3757C180.056 35.2051 179.879 35.1001 179.531 35.0739C178.829 34.6737 177.964 34.2538 176.914 33.8208C172.729 32.102 168.065 30.5406 162.922 29.1629C157.779 27.7852 153.201 26.7487 149.193 26.0205C137.818 23.744 126.411 22.0645 115.069 21.6315C103.327 21.1789 91.3226 21.9202 79.3708 23.1207C74.5428 31.9708 69.8723 40.9127 65.2477 49.8612C59.5801 60.8368 53.9846 71.9174 48.5138 82.9717C42.8003 94.5116 37.2376 106.274 32.0423 118.018C27.3325 128.659 22.7472 139.602 18.9688 150.564C16.1809 158.647 13.557 166.959 12.2976 175.494C11.3136 182.172 12.3369 186.24 15.3019 187.657C16.1744 188.201 16.2596 189.146 15.5643 190.491C15.2101 191.245 14.6919 191.947 13.9965 192.59C13.6423 192.82 13.2094 193.161 12.6911 193.601C11.8187 194.276 11.2086 195.175 10.861 196.284C10.6839 196.664 10.4674 196.75 10.205 196.533C9.94261 196.317 9.6343 195.982 9.28664 195.523C8.76186 194.919 8.32892 194.303 7.98125 193.673C5.19337 189.31 3.15329 184.646 1.83479 179.692C0.319489 173.972 0.280128 166.945 0.916424 161.179C1.9135 152.211 3.94046 143.229 6.27572 134.497C9.72614 121.58 14.4885 108.853 19.2181 96.2566C19.5657 95.8499 19.7429 95.476 19.7429 95.1283C20.471 88.8171 20.5628 82.0402 20.0052 75.7356C19.4542 69.5687 17.7815 64.4516 14.9083 60.4956C12.0352 56.5462 7.64671 54.073 1.96598 53.4825C-6.10905 52.6493 -13.679 55.9886 -21.0456 59.0983C-22.6133 55.7327 -23.4005 54.0533 -24.9683 50.7009C-18.9333 45.3148 -12.3474 40.5125 -5.61707 36.1039C2.24149 30.9605 10.5855 26.3879 18.9622 22.281C30.1138 16.8162 42.0131 12.8208 54.0043 9.19947C55.7426 8.68776 57.5334 8.13668 59.3636 7.5528C61.1938 6.96892 63.0633 6.43096 64.9853 5.93893C65.5101 5.72899 66.0742 5.59779 66.6843 5.55842C67.2943 5.51906 68.0553 5.39441 68.908 5.14512C69.5902 4.9483 70.2134 4.79741 70.7382 4.76461C71.263 4.73181 71.7812 4.61372 72.306 4.40378H72.2994ZM30.7238 68.3682C34.1283 61.0336 37.5919 53.7318 41.1866 46.5022C44.1385 40.5584 47.2872 34.6409 50.5998 28.8743C45.8899 30.2126 41.2719 31.6034 36.7391 33.0467C32.2063 34.49 27.6736 36.1695 23.1408 38.0851C22.2683 38.5706 21.2647 39.0298 20.1364 39.4759C19.0016 39.9221 17.998 40.0401 17.1321 39.8368C18.0045 40.2173 19.1394 40.9914 20.53 42.1592C21.9207 43.3269 23.3179 45.0327 24.7151 47.2632C26.1123 49.4938 27.3718 52.3213 28.5066 55.7327C29.6415 59.1442 30.3762 63.3626 30.7304 68.3682H30.7238ZM30.7238 81.4432C30.3696 81.8433 30.1991 82.2567 30.1991 82.6896C30.1991 83.1226 30.0219 83.6278 29.6743 84.1985C29.1495 85.491 28.5854 86.8424 27.9753 88.2332C27.3653 89.6306 26.8011 91.0608 26.2763 92.5369C25.3317 94.5575 24.866 95.5678 23.9214 97.595C23.7443 97.9755 23.5737 98.3954 23.3966 98.8546C23.2195 99.3204 23.0424 99.7402 22.8718 100.114C22.6947 100.495 22.5635 100.862 22.4783 101.223C22.393 101.584 22.2552 101.958 22.0847 102.332C21.5599 103.637 20.9958 104.989 20.3857 106.393C19.7757 107.796 19.2968 109.05 18.9491 110.158V110.421C18.772 110.447 18.6867 110.552 18.6867 110.722C18.8573 110.348 19.2115 109.594 19.7297 108.459C20.248 107.324 20.7334 105.933 21.2975 104.549C21.7436 103.453 22.1699 102.542 22.3405 101.899C22.5111 101.262 22.9178 100.711 23.1277 100.337C23.3507 99.9371 23.5213 99.2285 23.7836 98.6709C24.046 98.1067 24.3478 97.3654 24.702 96.4403C25.5744 94.5706 26.2698 92.983 26.7946 91.684C27.3193 90.3916 28.0999 88.5284 29.1495 86.1142C29.3201 85.7402 29.4513 85.3729 29.5431 85.012C29.6284 84.6512 29.8448 84.2773 30.1991 83.8771C30.1991 83.7065 30.2384 83.5228 30.3303 83.3391C30.4155 83.1554 30.4614 82.8865 30.4614 82.5387C30.8091 82.1451 31.0715 81.758 31.2486 81.3841C31.5963 80.4656 32.0358 79.4881 32.554 78.4582C33.0788 77.4347 33.5117 76.3719 33.8594 75.2763C34.5547 73.7937 34.9286 72.5472 35.1648 71.9699C35.3812 71.4516 35.7748 70.8874 35.9519 70.4282C36.1225 69.9755 36.3849 69.4572 36.7391 68.893C37.2639 67.7777 37.7427 66.7674 38.1757 65.8358C38.6086 64.9108 39.0022 64.0776 39.3499 63.3363C40.2945 61.3419 40.7602 60.3447 41.7048 58.3504C42.0525 57.6156 42.3608 56.9268 42.6232 56.2838C42.8856 55.6475 43.1873 54.9586 43.5415 54.2173C44.2369 52.7477 44.8469 51.5013 45.3717 50.4844C45.8965 49.4741 46.3294 48.595 46.6771 47.8602C47.5495 46.2004 48.0284 45.1442 48.1137 44.6981C48.199 44.2585 48.4876 43.4253 49.032 42.3822C49.5043 41.4769 49.9045 40.8996 50.075 40.7093C50.2456 40.5191 50.508 39.9745 50.8622 39.0626V38.8002C50.7573 38.9183 50.7048 38.9708 50.5998 39.0889V39.6137C50.4227 39.804 50.2915 39.9942 50.2062 40.1779C50.121 40.3616 49.9832 40.5519 49.8126 40.7421C49.6355 40.9389 49.5503 41.1226 49.5503 41.2932C49.196 42.028 48.8484 42.7168 48.5073 43.3597C48.1596 44.0092 47.8054 44.6062 47.4643 45.1704C47.2872 45.5378 47.2019 45.8134 47.2019 45.9839C47.2019 46.1545 46.9264 46.4563 46.6771 46.8237C46.4803 47.1123 46.4147 47.4666 46.4147 47.6372C46.4147 47.8077 46.3229 47.998 46.1523 48.1882C45.7981 49.1001 45.2799 50.2023 44.5845 51.4947C43.8892 52.7937 43.43 54.132 43.0168 54.8077C42.6822 55.3522 41.8819 56.5987 41.1866 58.416C40.8324 59.3344 40.4454 60.207 40.0124 61.0402C39.5795 61.8733 39.1859 62.6671 38.8382 63.4085C38.1429 64.8911 37.5722 66.0917 37.1393 67.0167C36.6997 67.9483 36.0307 69.1882 35.4403 70.6315C34.8761 72.0027 34.4826 73.2032 34.1349 73.938C33.7872 74.6793 33.3149 76.1095 32.5671 77.8087C31.6816 79.8096 30.9075 81.0889 30.737 81.4563L30.7238 81.4432ZM20.7858 111.687C21.1335 111.287 21.2188 111.096 21.0482 111.123C21.2188 110.749 21.3106 110.519 21.3106 110.427C21.3106 110.335 21.3959 110.112 21.573 109.732C21.7436 109.358 21.8354 109.082 21.8354 108.905V108.643C21.8354 108.82 21.6583 109.194 21.3106 109.771C21.3106 109.948 21.2647 110.086 21.1794 110.184C21.0876 110.289 21.0482 110.513 21.0482 110.86C20.694 111.438 20.3529 112.277 20.0052 113.379C19.8281 113.583 19.7429 113.773 19.7429 113.944C19.5657 114.147 19.4345 114.39 19.3493 114.659C19.264 114.934 19.1262 115.262 18.9557 115.636C19.0606 115.512 19.1131 115.453 19.2181 115.334C19.323 115.21 19.3755 115.151 19.4805 115.033C19.4805 114.862 19.5264 114.632 19.6117 114.357C19.6969 114.081 19.7429 113.858 19.7429 113.681C19.7429 114.035 19.7429 114.121 19.7429 113.944C19.7429 113.766 20.0118 113.465 20.2676 113.078C20.6547 112.481 20.7924 111.864 20.7924 111.687H20.7858ZM24.4462 102.751C24.7938 102.351 24.8791 101.767 24.971 101.367C25.0431 101.052 25.3186 100.619 25.4957 100.245C25.6663 99.8715 25.7581 99.5959 25.7581 99.4188C25.7581 99.2417 26.0205 98.8546 26.5453 98.2576C26.6502 97.9296 26.7027 97.7655 26.8077 97.4375V97.1751C26.9782 96.8012 27.1553 96.4272 27.3325 96.0533C27.503 95.6793 27.6801 95.2201 27.8572 94.669C28.2049 93.9277 28.4214 93.4553 28.5132 93.2651C28.5985 93.0814 28.7297 92.7993 28.9068 92.4253C28.9068 92.0776 28.815 92.0055 28.6444 92.2023C28.4673 92.4057 28.382 92.5894 28.382 92.7599C28.2049 93.1339 27.9884 93.6456 27.726 94.2951C27.4636 94.9446 27.1553 95.7318 26.8077 96.6503C26.6306 96.6765 26.5453 96.7815 26.5453 96.9521C26.3682 97.326 26.2829 97.6868 26.2829 98.0345C26.2829 98.3822 25.968 98.789 25.7581 99.1564C25.5351 99.5566 25.358 100.508 24.971 101.105C24.7217 101.492 24.4462 101.971 24.4462 102.489V102.751ZM63.6733 36.6353V36.1104C63.4962 35.953 63.2338 35.8808 62.8862 35.9071C62.6763 35.9202 62.5713 35.9333 62.3614 35.9464C62.2564 36.3729 62.204 36.5894 62.099 37.0158C61.9941 37.1273 61.9416 37.1864 61.8366 37.2979C61.8366 37.475 61.7448 37.6587 61.5742 37.8424C61.4693 38.0589 61.4168 38.1704 61.3119 38.3869C60.2689 39.8696 59.5866 41.6803 58.9569 43.0252C58.4715 44.0617 57.7368 45.3082 57.3891 46.5612C57.212 46.9286 56.9103 47.4338 56.4708 48.0767C56.0313 48.7262 55.6442 49.415 55.2966 50.1432C54.5947 51.6062 53.8994 52.8855 53.204 53.9942C53.0269 54.3616 52.7711 54.9521 52.4169 55.7721C52.0692 56.5922 51.7215 57.4516 51.3739 58.3569C51.1968 58.5472 51.1115 58.7309 51.1115 58.908C51.1115 59.0851 51.0196 59.3541 50.8491 59.7215C50.4949 60.4563 50.3243 60.9089 50.3243 61.0795C49.7995 62.0045 49.3666 63.0083 49.0189 64.0908C48.1465 65.9277 47.4052 67.3119 46.7952 68.2435C46.1851 69.1817 45.5619 70.5725 44.8338 72.1142C44.0663 73.7412 43.3513 75.073 43.0036 75.9783C42.656 76.8902 42.0459 78.3532 41.1735 80.3738C40.8193 81.4628 40.5175 82.3288 40.2551 82.9652C39.9927 83.6081 39.7763 84.1133 39.5992 84.4806C39.2449 85.222 39.0744 85.7665 39.0744 86.1142C38.8973 86.311 38.7661 86.5472 38.6808 86.8162C38.5955 87.0851 38.4578 87.4132 38.2872 87.7805C37.933 89.2238 37.4148 90.8115 36.7194 92.55C36.0241 94.2951 35.3222 95.9942 34.6269 97.654C34.2727 98.5725 33.8397 99.5041 33.3215 100.442C33.3215 100.619 33.1444 101.079 32.7967 101.82C32.449 102.568 32.2719 103.027 32.2719 103.198C31.2289 105.087 30.5008 107.062 29.917 108.754C29.4841 110.007 28.7822 111.444 28.0868 112.933C27.3915 114.429 26.8667 115.813 26.5191 117.086C26.5191 117.263 26.3157 117.493 26.2567 117.65C26.1386 117.972 26.1648 118.451 25.9943 118.477V118.739C26.0992 118.831 26.1517 118.871 26.2567 118.962C26.3616 118.844 26.4141 118.785 26.5191 118.661C26.624 118.543 26.6765 118.483 26.7814 118.359C26.8864 118.241 26.9389 118.182 27.0438 118.057C26.9389 117.965 26.8864 117.926 26.7814 117.834C27.1291 117.086 27.5227 116.154 27.9556 115.046C28.3886 113.937 28.9593 112.723 29.6546 111.405C30.8747 108.971 31.57 107.39 31.7472 106.668C31.9177 105.953 32.4031 104.385 33.3149 102.273C34.2595 100.081 35.1845 98.1461 35.8011 96.5847C36.4111 95.0298 37.3229 92.9502 38.5496 90.3588C38.7201 89.9914 38.8973 89.5781 39.0744 89.1189C39.2449 88.6662 39.422 88.2529 39.5992 87.879C39.9468 87.1442 40.2092 86.6718 40.3863 86.475C40.3863 86.1273 40.5569 85.5828 40.9111 84.8415C41.4359 83.7327 41.9541 82.6306 42.4789 81.5219C43.0036 80.4132 43.5219 79.2257 44.0466 77.9464C44.5714 76.6737 45.1815 75.3813 45.8768 74.0823C45.8768 73.7346 46.1392 73.0983 46.664 72.1667C46.8345 71.7993 46.9264 71.5303 46.9264 71.3532C46.9264 71.176 47.0116 70.9136 47.1888 70.5397C47.8841 69.2473 48.4941 68.0467 49.0189 66.9511C49.5437 65.849 50.0619 64.8452 50.5867 63.9136C51.4591 62.0898 52.2398 60.3119 52.9416 58.5865C53.637 56.8677 54.4176 55.1817 55.2966 53.5284C55.6442 52.8002 55.9919 52.1179 56.3396 51.475C56.6872 50.8387 57.1399 50.1039 57.3826 49.4216C57.6056 48.8049 57.7762 48.0833 58.0386 47.5322C58.3009 46.9877 58.5174 46.535 58.6945 46.1676C59.7375 44.5078 60.3082 43.4188 60.3935 42.8874C60.4788 42.3626 60.8724 41.4572 61.5677 40.1779C61.9153 39.2791 62.1318 38.6953 62.2237 38.4263C62.3089 38.1573 62.4401 37.8424 62.6172 37.4816C62.7222 37.475 62.7747 37.4685 62.8796 37.4619C63.0895 37.2388 63.1945 37.1273 63.4044 36.8977C63.5094 36.7862 63.5618 36.7271 63.6668 36.6156L63.6733 36.6353ZM29.6808 90.4835C29.6808 90.3129 29.7661 90.0767 29.9432 89.7946C30.1138 89.5125 30.2909 89.1845 30.468 88.804C30.8157 88.0626 31.0781 87.4591 31.2552 86.9933C31.4257 86.5406 31.6881 85.8452 32.0423 84.9268C32.39 84.0083 32.6065 83.5031 32.6983 83.3982C32.7836 83.2998 32.9148 82.9783 33.0919 82.4338C32.9148 82.6306 32.8295 82.8209 32.8295 82.9914C32.1342 84.1329 31.7144 85.0252 31.5241 85.5238C31.3864 85.8846 31.1765 86.3176 30.9993 86.7702C30.8222 87.2295 30.5598 87.833 30.2122 88.5809C30.0351 88.7777 29.9498 89.0533 29.9498 89.401C29.7727 89.7749 29.7268 89.9521 29.8186 89.9389C29.9039 89.9258 29.858 90.0242 29.6874 90.221V90.4835H29.6808ZM46.9395 52.0064C46.8345 52.1245 46.7821 52.177 46.6771 52.2951C46.4672 52.5247 46.3622 52.6428 46.1523 52.8724C45.9752 53.4169 45.7587 53.9221 45.4964 54.3813C45.234 54.8471 45.1028 55.2538 45.1028 55.6015C44.9257 55.9689 44.6633 56.4347 44.3156 56.9989C43.9679 57.5631 43.7908 58.0158 43.7908 58.3635C43.4366 58.7571 43.1808 59.2623 43.0036 59.8921C42.8265 60.5219 42.5182 61.132 42.2165 61.6831C41.8491 62.3654 41.6064 62.9361 41.4293 63.2117C41.2588 63.4938 41.1144 63.9989 40.9045 64.4516C40.6618 64.9764 40.2945 65.4881 40.1174 65.849C39.9403 66.2229 39.6385 66.7937 39.3302 67.5153C38.9563 68.3879 38.6349 69.2604 38.2872 69.9952C38.1101 70.5397 37.9395 71.0842 37.7624 71.6287C37.5919 72.1732 37.4082 72.7178 37.2376 73.2623C36.3652 74.594 35.7551 75.893 35.4075 77.1526C35.0533 77.5528 34.7974 78.0645 34.6203 78.6943C34.4432 79.3307 34.1808 79.8424 33.8332 80.236C33.8332 80.5903 34.2661 79.8293 35.1385 77.9727C35.4862 77.0608 35.7486 76.5031 35.9257 76.2998C36.0963 76.1029 36.3586 75.6372 36.7129 74.8958C37.0605 74.161 37.3229 73.5116 37.5 72.967C37.6706 72.4225 38.1232 71.6484 38.543 70.7431C38.9235 69.923 39.5008 68.4469 40.3732 66.5969C41.2456 64.7534 42.0263 63.0936 42.7281 61.6175C43.0758 61.0533 43.3382 60.4628 43.5153 59.8265C43.6859 59.2032 44.0598 58.5669 44.3025 58.042C44.5124 57.5894 44.6501 57.0448 44.8273 56.6775C44.9978 56.3101 45.1749 55.9427 45.352 55.5753C45.6997 55.0111 45.9162 54.5978 46.008 54.3288C46.0933 54.0598 46.2245 53.7384 46.4016 53.371C46.5721 53.0036 46.664 52.7805 46.664 52.6887C46.664 52.5969 46.7493 52.3804 46.9264 52.0064H46.9395ZM37.2639 19.9061C37.6116 19.8602 37.8739 19.7421 38.0511 19.5453C41.3637 18.266 44.6764 17.0589 47.989 15.9305C51.2952 14.8021 54.2667 13.7852 56.8775 12.8536C58.2681 12.3879 59.1865 12.0926 59.626 11.968C60.0589 11.8433 60.4525 11.7712 60.8002 11.7384C60.9707 11.7252 61.6398 11.3972 62.6304 11.0692C63.575 10.7609 63.4962 10.8265 62.1056 11.1086C60.7084 11.3907 58.1829 12.1123 54.5225 13.3194C52.6005 13.8443 51.3345 14.2313 50.731 14.4675C50.121 14.7037 49.6421 14.9267 49.2944 15.1367C48.9402 15.1695 48.5073 15.3073 47.989 15.5303C47.4643 15.7599 46.4934 16.1404 45.1093 16.6193C43.5612 17.1573 42.2296 17.6362 41.1866 18.1086C40.1436 18.5809 39.2646 18.9483 38.5693 19.2042C38.4643 19.3222 38.4118 19.3813 38.3069 19.4994C38.1298 19.5191 38.0445 19.5781 38.0445 19.6634C38.0445 19.7487 37.9527 19.8077 37.7821 19.8274C37.5722 19.8536 37.4672 19.8668 37.2573 19.893L37.2639 19.9061ZM121.465 7.57248C120.664 7.48064 119.503 7.28382 118.198 7.2707C116.892 7.25758 115.397 7.36255 114.144 7.2379C113.344 7.15261 112.484 6.96892 111.789 6.96892C111.087 6.96892 110.306 6.96892 109.434 6.96892C108.909 6.96892 108.647 6.96892 108.129 6.96892C107.604 6.96892 107.171 7.06077 106.823 7.2379C105.879 7.2379 105.413 7.24446 104.468 7.25102C102.376 7.2707 101.333 7.28382 99.2402 7.31663C98.3678 7.50688 97.4953 7.60529 96.6229 7.62497C95.7504 7.64465 94.7861 7.5856 94.0055 7.68401C93.2053 7.78242 92.3066 7.98579 91.5194 8.01203C90.7322 8.03171 89.8336 8.24165 89.0333 8.34662C88.2527 8.44502 87.4196 8.44502 86.8095 8.54999C86.1995 8.66152 85.5435 8.72712 84.8482 8.75337C82.2308 9.20604 79.6988 9.66527 77.2651 10.1442C74.8249 10.6165 72.3847 11.1086 69.9445 11.6137C69.072 11.6728 68.1143 11.9089 67.0647 12.3288C66.3694 12.3747 65.7921 12.6109 65.497 12.7028C65.1034 12.8208 64.4868 12.9717 64.1916 13.057C63.6668 13.2145 62.6238 13.3522 61.5742 13.7787C61.22 13.8049 60.8724 13.8771 60.5312 13.9952C60.1836 14.1133 59.8359 14.1854 59.4883 14.2117C57.0415 14.9333 55.4343 15.4319 54.6472 15.6812C53.8666 15.9239 52.5021 16.58 50.8556 17.0851C49.5962 17.4722 48.5007 17.7609 47.9759 18.161C47.6217 18.2004 47.32 18.2726 47.0576 18.3907C46.7952 18.5088 46.231 18.699 45.3586 18.968C45.1487 19.0926 45.0437 19.1582 44.8338 19.2894C45.1815 19.2501 45.3586 19.1451 45.3586 18.968C45.6735 18.9352 45.8309 18.9155 46.1458 18.8827C46.8411 18.8105 47.5364 18.5612 48.2383 18.1414C48.586 17.9314 48.8484 17.8199 49.0255 17.8002C51.2886 17.0458 53.473 16.3569 55.5655 15.7337C57.6581 15.1104 59.3111 14.5856 60.5312 14.1329C60.9511 14.1001 61.161 14.0805 61.5742 14.0476C61.9219 13.8508 62.3614 13.7262 62.8796 13.6868C63.9226 13.2604 65.0837 13.0898 66.0152 12.9324C66.822 12.7946 67.7994 12.46 68.7637 12.2238C69.7149 11.9877 70.548 11.8499 71.2498 11.804C72.4699 11.3841 74.5231 10.9052 77.3963 10.4132C80.2695 9.91456 82.9327 9.45533 85.3729 9.00922C86.5865 8.79273 87.636 8.66808 88.5085 8.63528C89.3809 8.60904 90.2468 8.58279 91.1258 8.55655C91.4735 8.54343 91.69 8.4975 91.7818 8.40566C91.8671 8.32037 92.0835 8.26789 92.4378 8.25477C92.9625 8.24165 93.2249 8.23509 93.7432 8.22197C94.9633 8.18916 95.921 8.0842 96.6229 7.89394C98.8204 7.84802 99.9159 7.8349 102.113 7.80866C102.809 7.63153 103.766 7.52656 104.993 7.52C106.351 7.50688 107.033 7.50688 108.391 7.50032C110.694 7.50032 111.841 7.50032 114.144 7.50688C115.922 7.51344 116.814 7.52656 118.591 7.54624C118.801 7.54624 118.906 7.54624 119.116 7.54624C119.431 7.54624 119.588 7.54624 119.903 7.55936C120.251 7.55936 120.513 7.61184 120.691 7.70369C120.861 7.79554 121.123 7.84146 121.478 7.84802C122.836 7.8677 123.518 7.88083 124.876 7.90707C125.571 8.09732 126.981 7.99891 128.274 8.24165C128.733 8.32693 129.362 8.53031 129.973 8.54343C130.583 8.55655 131.147 8.57623 131.672 8.58935C132.196 8.77961 132.76 8.88457 133.37 8.90425C133.981 8.92393 134.63 9.03546 135.332 9.22571C135.752 9.23883 135.962 9.2454 136.375 9.25852C136.545 9.44221 136.808 9.53406 137.162 9.54718C137.51 9.5603 137.857 9.61278 138.205 9.71775C138.553 9.81615 138.9 9.8752 139.248 9.88832C139.596 9.90144 139.943 9.96049 140.291 10.0589C140.639 10.1573 140.986 10.2163 141.334 10.2295C141.505 10.236 141.596 10.2819 141.596 10.3738C141.596 10.4656 141.682 10.505 141.859 10.5181C142.279 10.5378 142.489 10.5444 142.902 10.564C143.774 10.774 144.935 11.1414 146.3 11.5022C148.143 11.9877 150.222 12.4338 152.315 12.9783C154.408 13.5228 156.323 14.028 158.068 14.4806C158.173 14.4806 158.225 14.4872 158.33 14.4938C158.501 14.6775 158.724 14.8218 158.986 14.9267C159.249 15.0317 159.38 14.9924 159.38 14.8218C159.17 14.8087 159.065 14.8021 158.855 14.789C158.678 14.7759 158.245 14.579 157.55 14.1854C157.195 14.1657 156.717 14.0476 156.113 13.8377C155.503 13.6278 154.847 13.4178 154.152 13.2013C153.456 12.9914 152.754 12.8208 152.059 12.6962C151.364 12.5715 150.524 12.2042 149.704 11.9221C148.93 11.6531 148.091 11.535 147.48 11.4235C146.87 11.3054 146.306 11.1545 145.782 10.9511C145.257 10.9249 144.778 10.8593 144.345 10.7543C143.912 10.6493 143.518 10.5903 143.171 10.5706C143.171 10.4 142.908 10.2951 142.384 10.2754C142.029 10.2623 141.813 10.2098 141.728 10.1179C141.642 10.0261 141.419 9.97361 141.072 9.96049C140.717 9.94736 140.284 9.88832 139.766 9.77679C139.248 9.67183 138.474 9.41597 137.674 9.30444C136.736 9.17979 135.929 9.16011 135.581 8.96986C134.741 8.94361 134.328 8.9305 133.489 8.90425C132.091 8.51063 130.904 8.35318 130.091 8.28101C128.772 8.16292 127.381 7.90706 126.168 7.79554C124.948 7.68401 123.183 7.7693 121.458 7.57904L121.465 7.57248ZM52.1676 41.2735C51.6428 42.1985 51.118 43.117 50.5998 44.042C50.075 44.967 49.6421 45.8855 49.2944 46.7909C48.422 48.2801 48.035 49.0608 48.1202 49.1329C48.2055 49.2117 48.0743 49.6184 47.7267 50.3532C47.5495 50.7206 47.6414 50.6222 47.989 50.0645C48.3367 49.5069 49.1239 47.9455 50.344 45.3804C50.8688 44.2848 51.2164 43.5566 51.387 43.1826C51.5575 42.8218 51.7346 42.5397 51.9118 42.3494C52.0823 42.1592 52.2135 41.8836 52.3053 41.5294C52.3906 41.1751 52.6989 40.5322 53.2237 39.6137C53.7419 38.6953 54.1355 37.8752 54.3979 37.1535C54.6603 36.4385 54.962 35.8874 55.3163 35.5003C55.4212 35.3888 55.4737 35.3297 55.5787 35.2182C55.4737 35.2248 55.4212 35.2313 55.3163 35.2445V35.5069C54.962 35.8874 54.6603 36.3532 54.3979 36.8977C54.1355 37.4422 53.6895 37.9408 53.4795 38.2885C53.2565 38.6756 53.086 39.3316 52.8236 39.7909C52.5612 40.2501 52.3447 40.7552 52.1676 41.2932V41.2735ZM85.1171 6.3916C84.5923 6.53593 83.7658 6.49001 83.1558 6.60154C82.5457 6.71306 81.9816 6.78523 81.4568 6.80491C80.932 6.83115 80.4072 6.89676 79.889 7.00828C79.3708 7.11981 78.846 7.19198 78.3212 7.21822C77.7964 7.42159 77.3176 7.53312 76.8846 7.5528C76.4451 7.57248 76.0581 7.68401 75.7105 7.87426C73.6179 8.34005 72.1288 8.70744 71.263 8.91738C70.2331 9.16667 69.564 9.28476 69.3016 9.30444C69.0392 9.32412 68.5472 9.46189 67.865 9.65871C67.0123 9.908 66.5137 10.013 66.4284 10.0195C66.3366 10.0195 65.9824 10.1179 65.5101 10.3476C65.169 10.5116 65.0706 10.5968 65.2477 10.4984C65.4182 10.4 65.6806 10.3344 66.0349 10.3082C66.4547 10.2754 66.6646 10.2623 67.0779 10.236C67.4255 10.0392 67.865 9.92112 68.3832 9.88832C68.9015 9.85552 69.341 9.73743 69.6886 9.54062C70.0363 9.52094 70.3446 9.45533 70.607 9.35036C70.8628 9.2454 71.1711 9.18635 71.5253 9.16011C71.873 8.96986 72.752 8.9633 73.6179 8.77305C74.0836 8.67464 74.6215 8.45158 75.0545 8.4319C75.4874 8.40566 75.7957 8.39254 75.9728 8.37942C76.3205 8.35973 77.193 8.14324 78.5902 7.72337C79.115 7.69713 79.6397 7.63153 80.158 7.52C80.6762 7.40847 81.2731 7.39535 81.7257 7.31663C82.3555 7.21166 83.2017 6.9886 84.0807 6.9558C84.9531 6.923 85.7337 6.80491 86.4356 6.60154C86.8554 6.58842 87.0654 6.58185 87.4786 6.56217C88.0034 6.54249 88.3511 6.44408 88.5216 6.26695C89.4662 6.23415 89.9319 6.22103 90.8765 6.19479C91.5719 6.00453 92.5034 6.00453 93.2315 5.86676C93.6907 5.78148 94.4516 5.57811 95.324 5.55842C95.6717 5.55186 96.0653 5.49938 96.4982 5.40097C96.9312 5.30257 97.4166 5.25008 97.9348 5.24352C98.2825 5.24352 98.722 5.18448 99.2402 5.09263C99.7584 4.99423 100.198 4.9483 100.546 4.94174C101.175 4.93518 101.49 4.92862 102.113 4.92206C102.743 4.9155 103.051 4.90894 103.681 4.90238C104.934 4.88926 105.564 4.8827 106.817 4.8827C108.804 4.86958 109.795 4.86958 111.782 4.87614C112.655 4.70557 111.428 4.60716 108.122 4.61372C106.134 4.61372 105.144 4.62684 103.156 4.64652C101.903 4.65964 101.274 4.6662 100.021 4.68588C99.3189 4.86958 98.0988 4.97454 96.3605 5.01391C95.1404 5.04015 94.1105 5.25008 93.4808 5.34193C92.8707 5.43377 92.1295 5.42066 91.5194 5.52562C90.9094 5.63059 90.2534 5.68963 89.558 5.71587C88.5151 5.74868 87.6623 5.96517 87.2031 6.05702C86.3372 6.22759 85.4057 6.31288 85.1105 6.39816L85.1171 6.3916ZM115.449 4.62684C115.095 4.62684 114.925 4.6662 114.925 4.75149C114.925 4.83678 115.01 4.8827 115.187 4.8827C115.502 4.8827 115.659 4.8827 115.974 4.8827C116.669 5.06639 117.45 5.15824 118.329 5.1648C119.169 5.17136 119.582 5.17792 120.422 5.19104C121.117 5.1976 121.819 5.25664 122.514 5.35505C123.209 5.45346 124.174 5.43378 125.131 5.53218C126.102 5.63059 126.83 5.78804 127.093 5.70275C127.355 5.62403 127.657 5.58467 128.011 5.59123C128.359 5.59779 128.274 5.59123 127.749 5.59123C127.224 5.57811 126.437 5.47314 125.394 5.27632C124.351 5.07951 123.432 4.97454 122.645 4.96142C121.858 4.9483 120.684 5.00735 119.379 4.9155C118.06 4.81709 117.155 4.62684 116.892 4.62684C116.63 4.62684 116.151 4.62028 115.456 4.61372L115.449 4.62684ZM130.878 5.94549C130.878 6.12262 131.048 6.21447 131.403 6.22103C131.508 6.22103 131.56 6.22103 131.665 6.22759C132.013 6.41128 132.406 6.50969 132.839 6.52281C133.272 6.53593 133.757 6.6409 134.276 6.83115C134.905 6.85083 135.22 6.86395 135.843 6.88364C136.263 6.89676 136.473 6.90332 136.886 6.923C137.057 7.10669 137.319 7.19854 137.674 7.21166C137.989 7.22478 138.146 7.23134 138.461 7.2379C139.156 7.44127 139.72 7.54624 140.16 7.56592C140.593 7.5856 141.085 7.71681 141.596 7.88738C142.259 8.11044 142.902 8.20229 143.427 8.22853C143.951 8.25477 144.299 8.35974 144.47 8.53687C144.817 8.54999 145.211 8.61559 145.644 8.72056C146.077 8.82553 146.47 8.89113 146.818 8.90425C146.923 8.90425 146.975 8.91082 147.08 8.91738C146.903 8.91082 146.556 8.85177 146.037 8.74024C145.519 8.62871 145.25 8.49094 145.25 8.31381C144.896 8.30069 144.371 8.22853 143.682 8.11044C142.987 7.99235 142.515 7.72337 142.377 7.66433C141.885 7.43471 140.894 7.52 140.547 7.32975C140.022 7.31007 139.76 7.29694 139.241 7.27726C139.064 7.2707 138.979 7.17885 138.979 7.00828C138.874 7.00828 138.822 7.00828 138.717 6.99516C138.362 6.98204 138.061 6.92956 137.798 6.83115C137.536 6.73274 137.228 6.68026 136.88 6.66714C136.526 6.65402 136.132 6.59498 135.706 6.49657C135.273 6.3916 134.735 6.37848 134.269 6.31944C133.462 6.21447 132.787 6.01109 132.439 5.99797C132.085 5.98485 131.567 5.97173 130.871 5.95205L130.878 5.94549ZM155.982 11.4694C155.805 11.4563 155.943 11.5088 156.375 11.6203C156.808 11.7318 157.294 11.804 157.812 11.8368C157.983 12.0205 158.206 12.1189 158.468 12.1386C158.73 12.1517 159.052 12.3157 159.386 12.4535C159.99 12.7093 160.698 12.8864 161.217 13.0898C161.741 13.2932 162.351 13.5097 163.047 13.7262C163.217 13.7393 163.394 13.7918 163.571 13.8902C163.742 13.9886 163.919 14.0411 164.096 14.0542C164.792 14.4544 165.572 14.6774 166.451 14.7365C166.451 14.9136 166.536 15.0055 166.714 15.0186V14.7562C166.609 14.7496 166.556 14.7431 166.451 14.7365C166.346 14.7299 166.294 14.7234 166.189 14.7168C166.084 14.6053 166.031 14.5462 165.926 14.4347C165.572 14.4085 165.179 14.3429 164.752 14.2248C164.319 14.1067 164.011 13.9624 163.834 13.7721C164.182 13.9689 164.182 14.0148 163.834 13.9033C163.486 13.7918 163.139 13.6409 162.791 13.4441C162.089 13.0505 161.361 12.7618 160.698 12.5256C160.187 12.3485 159.826 12.3026 159.655 12.46C159.301 12.2698 158.999 12.1582 158.737 12.1451C158.475 12.132 158.081 12.0205 157.563 11.8105C157.045 11.6072 156.605 11.4956 156.257 11.4759C156.152 11.4759 156.1 11.4694 155.995 11.4628L155.982 11.4694Z" fill="white"/>
</svg>